<svg fill="none" xmlns="http://www.w3.org/2000/svg" viewBox="0 0 60 63" class="design-iconfont">
  <path fill-rule="evenodd" clip-rule="evenodd" d="M24.4643 7.00121C24.3523 6.96129 24.2402 6.92134 24.1696 6.81065C23.1636 6.29017 22.2064 5.68055 21.3093 4.98907C20.4231 4.32776 19.6281 3.55247 18.9446 2.68325C18.3601 1.92694 17.884 1.11182 17.6684 0.165284C17.6566 0.125332 17.6408 0.0866982 17.6211 0.0499928C17.6061 0.0200172 17.5819 -0.0111002 17.5439 0.00388768C17.5324 0.00892995 17.5221 0.0163538 17.5138 0.0257018C17.5054 0.0350497 17.4992 0.0461007 17.4954 0.0580711C17.4507 0.203564 17.3948 0.345397 17.3283 0.482334C17.3248 0.507685 17.3194 0.532725 17.3121 0.557262C17.006 1.27213 16.642 1.9608 16.2238 2.61637C16.2011 2.65249 16.1807 2.6904 16.1603 2.72837C16.1039 2.83341 16.0472 2.93891 15.9413 3.00835C15.4146 3.81709 14.7783 4.54887 14.0505 5.18275C13.2195 5.92293 12.2282 6.4604 11.1544 6.753C11.0965 6.80198 11.0259 6.81538 10.9552 6.82878C10.8895 6.84125 10.8238 6.85372 10.7682 6.89484C10.7691 6.9092 10.7745 6.92291 10.7836 6.93407C10.7927 6.94523 10.805 6.95326 10.8189 6.95707C11.2536 7.15076 11.6802 7.35945 12.1021 7.57966C12.9273 8.00583 13.7112 8.50757 14.4437 9.07844C14.9835 9.48556 15.4851 9.94089 15.9425 10.4389C15.9733 10.4699 15.9925 10.5106 15.9967 10.5541C16.2631 10.8643 16.5041 11.1956 16.7172 11.5445C16.9275 11.8953 17.1043 12.2651 17.2453 12.649C17.315 12.8422 17.3575 13.0421 17.4 13.2423C17.4404 13.4327 17.4809 13.6234 17.545 13.8088L17.7422 13.2889C17.7635 13.1627 17.8052 13.0409 17.8655 12.928C18.1265 12.4099 18.4239 11.911 18.7556 11.435C18.7708 11.4126 18.7857 11.3896 18.8008 11.3664C18.8731 11.2546 18.9479 11.1391 19.0749 11.0741C19.1181 11.0198 19.1602 10.9645 19.2023 10.9091C19.2998 10.781 19.3973 10.6528 19.5084 10.5369C19.5838 10.4587 19.6582 10.3791 19.7328 10.2994C20.007 10.0061 20.283 9.7108 20.6175 9.47965C20.909 9.21785 21.2196 8.97813 21.5468 8.76252C21.5635 8.71219 21.6065 8.68638 21.6496 8.66047C21.6569 8.65611 21.6641 8.65174 21.6713 8.64725C22.1408 8.32918 22.6307 8.04226 23.1378 7.78834C23.152 7.77041 23.1722 7.76507 23.1925 7.75971C23.21 7.75508 23.2276 7.75042 23.2415 7.73759C23.5312 7.56188 23.8409 7.4214 24.1639 7.3191C24.1851 7.30685 24.2049 7.29213 24.2227 7.27527C24.2362 7.25688 24.2562 7.25186 24.2761 7.24685C24.2937 7.24244 24.3112 7.23805 24.3241 7.22455C24.3397 7.2215 24.3555 7.21957 24.3714 7.21878C24.3915 7.19757 24.4192 7.1969 24.4471 7.19623C24.4768 7.19551 24.5068 7.19479 24.5282 7.16922C24.535 7.16293 24.5431 7.15735 24.5512 7.15179C24.5788 7.13288 24.6062 7.1141 24.5812 7.06777C24.5644 7.04997 24.5449 7.03479 24.5236 7.02279C24.504 7.01534 24.4842 7.00827 24.4643 7.00121ZM28.3265 12.7717L28.3266 12.7718L28.3267 12.7718C28.8145 13.119 29.3024 13.4663 29.8073 13.7918C30.3343 14.146 30.8513 14.5111 31.3682 14.876C31.6926 15.1051 32.0169 15.3341 32.3437 15.5604C32.8869 15.9376 33.4273 16.3172 33.9682 16.697L33.9683 16.697C34.2918 16.9242 34.6155 17.1515 34.94 17.3785C35.2147 17.5718 35.4887 17.7658 35.7627 17.9598L35.763 17.96C36.2261 18.2879 36.689 18.6158 37.1548 18.9395C37.2093 18.9774 37.2646 19.0143 37.3199 19.0513L37.32 19.0514C37.5256 19.1886 37.7318 19.3262 37.9007 19.516C38.2968 19.8083 38.7005 20.0914 39.1044 20.3746L39.1045 20.3746L39.1054 20.3753C39.289 20.504 39.4725 20.6327 39.6554 20.7623C40.242 21.1782 40.831 21.5909 41.42 22.0037L41.4206 22.0041C41.8455 22.3018 42.2704 22.5996 42.6945 22.8986C43.065 23.1596 43.4366 23.4189 43.8081 23.6781L43.8086 23.6784C44.4102 24.0983 45.0118 24.5182 45.6091 24.945L45.6318 24.9619C45.6585 24.9819 45.6852 25.0018 45.714 25.0188C45.7509 25.0407 45.7855 25.0684 45.767 25.1203C45.7503 25.1672 45.7101 25.1689 45.6719 25.1704L45.6598 25.171C45.5122 25.1794 45.367 25.198 45.2225 25.2166C45.0284 25.2415 44.8356 25.2662 44.6406 25.2656C44.1247 25.2656 43.6114 25.3094 43.0981 25.3532L43.0981 25.3532C42.5986 25.3959 42.099 25.4385 41.5969 25.4408C41.3147 25.4405 41.0332 25.4683 40.7565 25.5238C40.6262 25.5503 40.5535 25.5872 40.5639 25.7325C40.5964 26.1866 40.595 26.6414 40.5936 27.0964V27.0965C40.5923 27.5136 40.591 27.931 40.6158 28.3484C40.6688 29.2604 40.7138 30.177 40.6873 31.0924C40.6734 31.572 40.6665 32.0528 40.6873 32.5312C40.7602 34.13 40.7797 35.7287 40.7991 37.3236V37.3237L40.8026 37.604C40.8026 38.1413 40.8026 38.6832 40.8452 39.2181C40.8852 39.6581 40.8816 40.0987 40.878 40.539C40.8748 40.9374 40.8715 41.3355 40.9006 41.7326C40.9304 42.1406 40.9273 42.5422 40.9241 42.9414V42.9415C40.9209 43.3602 40.9176 43.7762 40.9525 44.194C40.9812 44.5334 40.981 44.8733 40.9809 45.2131C40.9808 45.6515 40.9807 46.0894 41.0424 46.5252C41.0747 46.7558 41.1069 46.7846 41.3041 46.6405C41.8379 46.2543 42.3486 45.8404 42.8467 45.4092C43.5622 44.7851 44.2413 44.1203 44.8804 43.4181C45.3694 42.9053 45.8174 42.3549 46.2201 41.7718C46.3777 41.5259 46.544 41.2867 46.7101 41.0477C46.9085 40.7622 47.1068 40.477 47.29 40.1808C47.7621 39.4193 48.1924 38.6325 48.5789 37.8242C48.9735 36.992 49.3199 36.1378 49.6166 35.2659C49.8033 34.7183 49.9532 34.1591 50.102 33.6C50.1041 33.5745 50.1076 33.549 50.1123 33.5239C50.1226 33.4458 50.1449 33.371 50.1671 33.2962C50.1846 33.2373 50.2021 33.1785 50.2138 33.118C50.2541 32.8875 50.3072 32.6672 50.3614 32.4436C50.3634 32.4397 50.3644 32.4353 50.3644 32.4309C50.3644 32.4265 50.3634 32.4222 50.3614 32.4182C50.5083 31.6595 50.613 30.8931 50.6749 30.1228C50.6827 30.0224 50.6908 29.9219 50.6988 29.8214L50.6989 29.8209L50.6989 29.8208C50.761 29.0443 50.8233 28.2647 50.7764 27.4861C50.7633 27.2693 50.7524 27.0528 50.7416 26.8366V26.8365C50.7083 26.1754 50.6751 25.5168 50.5804 24.8609C50.5668 24.7653 50.5502 24.6701 50.5335 24.5749C50.512 24.4519 50.4904 24.329 50.4755 24.2049C50.4005 23.4392 50.2554 22.682 50.042 21.9429C49.9735 21.7161 49.9097 21.4881 49.846 21.26L49.846 21.2599C49.7434 20.8931 49.6409 20.5262 49.5186 20.1651C49.3943 19.75 49.2465 19.3424 49.0759 18.9442C48.9867 18.6614 48.8817 18.3838 48.7611 18.1129C48.7378 18.0636 48.7238 18.0105 48.7196 17.9561L48.6954 17.9019C48.6845 17.8744 48.6722 17.8474 48.6585 17.8212C48.6481 17.804 48.6392 17.7859 48.632 17.767C48.6228 17.7371 48.6124 17.7071 48.6009 17.6771C48.5951 17.6551 48.5878 17.6335 48.5789 17.6126C48.0651 16.462 47.4594 15.3547 46.7677 14.3014C46.6555 14.1435 46.5437 13.9853 46.4319 13.8271C46.2082 13.5106 45.9845 13.1942 45.7578 12.8798C45.6449 12.7224 45.5265 12.5692 45.408 12.4158L45.408 12.4157C45.3642 12.3592 45.3205 12.3026 45.277 12.2457L45.2608 12.2259C44.9515 11.8462 44.6416 11.466 44.3017 11.1124C44.1965 11.0043 44.092 10.8958 43.9875 10.7872L43.9869 10.7866C43.7661 10.5573 43.5454 10.3281 43.3194 10.1036C42.5104 9.30682 41.6467 8.56754 40.7346 7.8912C40.7042 7.86826 40.6758 7.84294 40.6474 7.8177C40.6316 7.8036 40.6158 7.78953 40.5997 7.77591C40.152 7.4294 39.6847 7.10914 39.2 6.8167C38.8938 6.60504 38.5724 6.4162 38.2385 6.25176C38.1049 6.20298 37.9796 6.13375 37.8673 6.04654C37.645 5.89576 37.4092 5.76609 37.1628 5.65918L37.1006 5.6292C37.0952 5.62661 37.0898 5.62409 37.0845 5.62161C37.0802 5.61964 37.076 5.6177 37.0718 5.61576C37.0503 5.60593 37.0291 5.59617 37.0083 5.58422C36.893 5.52658 36.7778 5.46893 36.6625 5.41359C35.9861 5.08463 35.2943 4.78564 34.5872 4.51662L34.5181 4.49473C34.4638 4.48106 34.4129 4.45767 34.3618 4.43424C34.2836 4.39837 34.2052 4.36239 34.1145 4.361C34.0959 4.35262 34.0773 4.34273 34.0593 4.33316L34.0465 4.32641C33.4997 4.11275 32.9416 3.92916 32.3748 3.77646C32.1514 3.71066 31.9245 3.65459 31.6979 3.59858L31.6979 3.59857C31.6029 3.57509 31.5079 3.55162 31.4133 3.52745C31.4004 3.52412 31.3862 3.52143 31.3718 3.51869C31.306 3.50619 31.2338 3.49249 31.2461 3.41216C31.2587 3.32958 31.336 3.34032 31.4049 3.34989C31.4177 3.35167 31.4303 3.35342 31.4421 3.35451C31.6889 3.40236 31.9371 3.44196 32.1853 3.48157L32.1854 3.48158C32.3917 3.5145 32.598 3.54742 32.8037 3.58509C32.9219 3.60574 33.04 3.62609 33.1582 3.64644C33.568 3.71701 33.9774 3.78753 34.3855 3.86986C35.1864 4.03126 35.9838 4.20918 36.7778 4.40364C37.6809 4.62577 38.5736 4.88135 39.456 5.17034C40.592 5.53928 41.7064 5.96201 42.7994 6.43855C42.8523 6.46579 42.9097 6.48299 42.9689 6.48927C43.9578 6.90988 44.9203 7.38998 45.8512 7.92694C46.8446 8.49063 47.8026 9.11476 48.7196 9.79581L48.7988 9.85478C49.1888 10.1451 49.5789 10.4356 49.9428 10.7585L50.924 11.6266C51.2643 11.9337 51.5857 12.2599 51.907 12.586C52.0983 12.7802 52.2897 12.9744 52.485 13.1646C52.8828 13.6085 53.269 14.0616 53.6379 14.5285C54.2144 15.2548 54.7509 16.0118 55.2451 16.7963C55.3385 16.9452 55.4284 17.0966 55.518 17.2477L55.5182 17.2479L55.5184 17.2484C55.5891 17.3673 55.6595 17.4861 55.7316 17.6033C55.7603 17.6894 55.8019 17.7706 55.855 17.8443C55.8704 17.8614 55.8835 17.8804 55.8942 17.9008C55.9028 17.9194 55.9087 17.9387 55.9147 17.9579C55.919 17.9721 55.9234 17.9862 55.9288 17.9999C55.9356 18.0231 55.9449 18.0456 55.9564 18.0668C56.5676 19.1775 57.1112 20.324 57.5843 21.5002C57.701 21.7379 57.7877 21.9872 57.8744 22.2361C57.9197 22.3661 57.9649 22.4961 58.0144 22.6242C58.037 22.8297 58.1063 23.0196 58.1756 23.2093L58.1756 23.2094C58.223 23.3391 58.2703 23.4687 58.3026 23.6031C58.3276 23.7213 58.3631 23.8371 58.4087 23.949C58.42 23.975 58.4274 24.0026 58.4306 24.0308C58.4692 24.1946 58.508 24.3586 58.5468 24.5226L58.5468 24.5227C58.8088 25.6287 59.0721 26.7408 59.2699 27.8642C59.4624 28.9653 59.5789 30.0709 59.6642 31.1812C59.6871 31.3504 59.6849 31.5208 59.6827 31.6912C59.6802 31.89 59.6777 32.0888 59.7149 32.2856C59.7283 32.3477 59.7349 32.4112 59.7345 32.4747C59.7241 32.7806 59.7364 33.0841 59.7487 33.3873L59.7488 33.3875C59.7597 33.6557 59.7705 33.9236 59.7657 34.1925C59.7507 35.0722 59.7218 35.953 59.6653 36.8293C59.6395 37.4687 59.5744 38.1059 59.4705 38.7374C59.4582 38.8391 59.454 38.9416 59.4578 39.044C59.4461 39.2209 59.4211 39.3966 59.3829 39.5697C59.295 40.1227 59.1718 40.6696 59.014 41.2069C58.833 41.8087 58.6381 42.4059 58.4375 43.0019C58.2957 43.4377 58.1458 43.8713 57.9683 44.2932C57.929 44.3448 57.9051 44.4063 57.8991 44.4708C57.8898 44.4942 57.8774 44.5163 57.8622 44.5365L57.7735 44.7439C57.3827 45.6582 56.9923 46.5715 56.5421 47.4579C56.331 47.8765 56.1012 48.2852 55.871 48.6947L55.871 48.6948C55.748 48.9135 55.6249 49.1325 55.5045 49.3533C55.4707 49.4147 55.4295 49.4741 55.388 49.5338L55.3879 49.5339C55.3515 49.5863 55.3149 49.639 55.2831 49.6934C55.268 49.7124 55.2548 49.7328 55.2439 49.7545C55.2336 49.7769 55.2216 49.7985 55.2082 49.8191C54.4589 51.0406 53.6143 52.201 52.6822 53.2894C52.5439 53.429 52.4177 53.5802 52.3052 53.7413C51.4924 54.6538 50.6163 55.5079 49.6834 56.2973C48.9855 56.8874 48.2583 57.4419 47.5044 57.9586C47.4498 57.9956 47.3946 58.0303 47.3392 58.0651L47.3392 58.0652C47.3151 58.0803 47.291 58.0954 47.2669 58.1108C46.6605 58.4936 46.046 58.8637 45.4292 59.2315L45.3727 59.2706C45.3007 59.2971 45.2339 59.3361 45.1756 59.3859C45.1219 59.4255 45.0607 59.4538 44.9957 59.469C44.8968 59.518 44.7992 59.5693 44.7017 59.6205L44.7016 59.6205C44.5469 59.7018 44.3923 59.7831 44.2325 59.8552C44.2141 59.8703 44.1944 59.8839 44.1737 59.8956C44.1257 59.9084 44.0809 59.9311 44.0422 59.9624C43.1531 60.3953 42.2414 60.7801 41.311 61.1153C40.7777 61.3117 40.2327 61.4828 39.6876 61.6539L39.6869 61.6542C39.5253 61.7049 39.3637 61.7556 39.2023 61.807C39.0897 61.8423 38.9748 61.8692 38.8598 61.8961L38.8597 61.8961C38.7193 61.929 38.5788 61.9618 38.4426 62.01C37.4393 62.2733 36.4225 62.4819 35.3966 62.6349C34.7514 62.7445 34.1011 62.8215 33.4482 62.8654C31.9056 62.975 30.3607 62.9807 28.8158 62.9681C28.3985 62.9683 27.9823 62.9251 27.5741 62.8389C27.5404 62.7507 27.5317 62.655 27.5487 62.5622C27.5487 62.1426 27.55 61.7229 27.5513 61.3031V61.3027C27.5538 60.4632 27.5564 59.6234 27.5487 58.7841C27.5324 57.4672 27.534 56.1503 27.5357 54.8336C27.5376 53.3663 27.5395 51.8992 27.5164 50.4325C27.4957 49.11 27.4927 47.7875 27.4897 46.465C27.487 45.2868 27.4844 44.1086 27.4692 42.9304C27.4535 41.7166 27.4557 40.5107 27.458 39.3069C27.4604 38.0308 27.4628 36.7571 27.4438 35.4792C27.4252 34.2287 27.4274 32.9776 27.4296 31.7265C27.4317 30.4931 27.4339 29.2596 27.4161 28.0268C27.4105 27.6181 27.4108 27.2095 27.4111 26.8008C27.4115 26.2076 27.412 25.6144 27.3942 25.0211C27.363 24.0241 27.3672 23.0275 27.3713 22.0307V22.0307V22.03C27.3733 21.5541 27.3753 21.0781 27.3735 20.602C27.3666 19.0433 27.3546 17.4846 27.3377 15.9258C27.3315 15.3621 27.3314 14.7985 27.3312 14.2337C27.3311 13.6433 27.331 13.0518 27.3239 12.4579C27.3296 12.4324 27.3288 12.402 27.328 12.3709C27.3255 12.2767 27.3228 12.1765 27.5014 12.1904C27.7784 12.3816 28.0525 12.5766 28.3265 12.7717ZM3.75849 48.4572C3.72012 48.2875 3.62933 48.1462 3.53811 48.0041C3.4868 47.9242 3.43535 47.8441 3.39301 47.7586C2.88909 46.7635 2.43617 45.7433 2.03603 44.7022C1.72936 43.8894 1.45958 43.0627 1.22899 42.228C1.02839 41.5155 0.861218 40.795 0.713645 40.0686C0.598354 39.4841 0.491134 38.8973 0.396595 38.3093C0.381745 38.2167 0.364174 38.1241 0.346557 38.0312L0.346547 38.0311C0.294414 37.7561 0.24188 37.4791 0.258251 37.1956C0.253204 37.0847 0.236976 36.9746 0.209824 36.867C0.172019 36.6108 0.155899 36.3524 0.139774 36.094C0.129344 35.9269 0.118913 35.7597 0.102611 35.5931C-0.00994316 34.4434 -0.00345698 33.291 0.00302669 32.139C0.00491107 31.8042 0.00679523 31.4694 0.00575675 31.1348C0.0294677 31.089 0.0371869 31.0367 0.0276694 30.986C0.0092228 30.1502 0.0461103 29.3155 0.108367 28.4831C0.127758 28.2201 0.196726 27.9671 0.265765 27.7138C0.299346 27.5906 0.332944 27.4673 0.360862 27.3428C0.517664 26.6728 0.710089 26.0116 0.937317 25.3621C0.950463 25.282 0.975327 25.2043 1.01111 25.1315C1.04248 25.0483 1.07042 24.9639 1.09835 24.8794C1.13507 24.7684 1.17178 24.6574 1.21631 24.5493C1.2708 24.4112 1.32322 24.2722 1.37562 24.1332C1.52612 23.734 1.67654 23.3351 1.87579 22.9571C2.03252 22.6689 2.1675 22.3702 2.30215 22.0722C2.39531 21.866 2.48833 21.6602 2.58828 21.4584C2.61682 21.4004 2.64754 21.3434 2.67826 21.2865C2.72821 21.1939 2.77817 21.1012 2.81886 21.0041C2.83592 20.9638 2.85677 20.9252 2.88112 20.8888C2.88947 20.8722 2.8987 20.8561 2.90879 20.8404C2.92263 20.8185 2.93646 20.7943 2.94799 20.7712C2.95404 20.7551 2.96178 20.7397 2.97105 20.7251C2.98297 20.7034 2.99373 20.6811 3.00332 20.6583C3.00938 20.6421 3.01711 20.6267 3.02639 20.6121C3.02951 20.6054 3.0331 20.5989 3.03674 20.5922C3.04116 20.5842 3.04565 20.576 3.04944 20.5672C3.05337 20.558 3.05841 20.5496 3.06351 20.5411C3.06739 20.5346 3.07131 20.528 3.0748 20.5211C3.07863 20.5134 3.08298 20.5016 3.08772 20.4887C3.09298 20.4745 3.09872 20.4589 3.10478 20.4461C3.11261 20.4285 3.12187 20.4115 3.13245 20.3954L3.16243 20.3435C3.168 20.3317 3.17399 20.3202 3.1799 20.309L3.17991 20.3089C3.18378 20.3016 3.1876 20.2943 3.19125 20.287C3.27776 20.1308 3.35476 19.9694 3.42183 19.8039C3.63374 19.3626 3.8681 18.9324 4.12396 18.515C4.33043 18.2478 4.50601 17.9581 4.64737 17.6515L4.66024 17.6319L4.66025 17.6318C4.67087 17.6157 4.68132 17.5999 4.69119 17.5834C4.90424 17.2942 5.09466 16.9889 5.26073 16.6704C5.28533 16.6253 5.3164 16.5841 5.35296 16.5481L5.35853 16.5419C5.39643 16.4992 5.44011 16.4501 5.50053 16.4962C5.55184 16.5354 5.53144 16.5746 5.51262 16.6107C5.50818 16.6192 5.50383 16.6276 5.50053 16.6357C5.37022 16.8893 5.26027 17.1517 5.15052 17.4136L5.10394 17.5246C4.76984 18.3186 4.47849 19.1299 4.23118 19.955C4.0225 20.6467 3.81958 21.3385 3.67893 22.0556C3.58814 22.4968 3.51808 22.9409 3.44793 23.3856C3.42899 23.5056 3.41006 23.6257 3.3907 23.7457C3.17626 25.075 3.14167 26.4124 3.16012 27.7533C3.17259 28.666 3.24578 29.5769 3.37917 30.4799C3.40353 30.6426 3.43091 30.8048 3.45829 30.967C3.49182 31.1657 3.52534 31.3643 3.55326 31.5636C3.63779 31.8033 3.68336 32.0521 3.72896 32.3011C3.76298 32.4868 3.79702 32.6726 3.84726 32.8549C3.89176 33.0138 3.93064 33.175 3.96961 33.3367C4.04375 33.6441 4.11823 33.953 4.23233 34.2499C4.26884 34.3415 4.29943 34.4353 4.33005 34.5293C4.36423 34.6342 4.39845 34.7392 4.44101 34.8414C4.54823 35.1999 4.68427 35.5481 4.82147 35.8963C4.8421 36.153 4.95142 36.3796 5.05966 36.604L5.05969 36.604C5.1026 36.693 5.14534 36.7816 5.18233 36.8716C5.82618 38.3583 6.62166 39.7747 7.55617 41.0982C8.08419 41.8393 8.64906 42.5535 9.24864 43.238C9.42818 43.4459 9.62094 43.6402 9.81373 43.8346L9.81381 43.8347L9.81385 43.8347C9.95776 43.9798 10.1017 44.1249 10.2401 44.2756C10.9225 44.957 11.6427 45.5995 12.3972 46.1998L12.6001 46.3566C12.7148 46.4364 12.8251 46.5222 12.9354 46.6081L12.9355 46.6082C13.066 46.7097 13.1966 46.8113 13.3346 46.9031C13.452 46.9819 13.5692 47.0611 13.6864 47.1403L13.6865 47.1403C14.0154 47.3627 14.3442 47.585 14.68 47.7966C14.6981 47.8082 14.7158 47.8223 14.7336 47.8364L14.7337 47.8365C14.7918 47.8827 14.8508 47.9296 14.9267 47.8935C15.009 47.8542 15.0024 47.7658 14.9964 47.6862C14.9952 47.6698 14.994 47.6538 14.9936 47.6387C14.9654 46.8281 14.9707 46.0172 14.976 45.2066V45.2065C14.9811 44.425 14.9862 43.6437 14.9613 42.8633C14.9248 41.7249 14.9275 40.5861 14.9301 39.4475V39.4475C14.9324 38.4633 14.9347 37.4793 14.9117 36.4958C14.8676 34.5063 14.8685 32.516 14.8694 30.5262V30.5262C14.8696 29.9665 14.8698 29.4069 14.8691 28.8473C14.8743 28.7539 14.851 28.661 14.8022 28.5811C14.7534 28.5012 14.6814 28.438 14.5958 28.4C14.1868 28.1791 13.7391 28.1386 13.2935 28.0982C13.2229 28.0918 13.1524 28.0855 13.0821 28.0784C12.6306 28.0338 12.1761 28.0296 11.7239 28.0657C11.6905 28.0724 11.6558 28.0699 11.6237 28.0583C11.5916 28.0467 11.5632 28.0266 11.5418 28C11.4997 27.9286 11.552 27.8848 11.5996 27.845C11.612 27.8346 11.624 27.8246 11.634 27.8143C12.3096 27.1341 12.9871 26.4558 13.6666 25.7795C13.8543 25.5923 14.0415 25.4047 14.2287 25.2171L14.23 25.2158C14.4645 24.9808 14.6991 24.7457 14.9348 24.5113L15.3164 24.1308C16.4486 22.9979 17.5811 21.8653 18.714 20.7332C18.8534 20.6066 18.9779 20.4647 19.0853 20.3101C19.5185 19.8754 19.9525 19.4416 20.3864 19.0078C20.9827 18.4118 21.5789 17.8159 22.1728 17.218C22.2696 17.1207 22.3606 17.0182 22.4514 16.9158C22.5705 16.7817 22.6893 16.6479 22.8207 16.5262C22.8291 16.5184 22.8374 16.5099 22.8459 16.5012C22.8861 16.4599 22.9286 16.4161 22.9925 16.4409C23.0666 16.4697 23.0664 16.5589 23.0663 16.6333L23.0663 16.6427C23.0663 17.8252 23.0642 19.0076 23.062 20.1899L23.062 20.193V20.1931C23.0572 22.9153 23.0523 25.6372 23.0732 28.3597C23.0904 30.6892 23.0893 33.019 23.0881 35.3489V35.3496C23.0871 37.3885 23.0861 39.4274 23.0974 41.466C23.0996 41.7796 23.1011 42.0932 23.1026 42.4067C23.1058 43.0865 23.1091 43.7661 23.1193 44.4463C23.1497 46.3738 23.1451 48.3016 23.1404 50.2297V50.2297V50.2301C23.1364 51.8826 23.1323 53.5353 23.1504 55.1879C23.1633 56.3899 23.1625 57.5918 23.1617 58.7939V58.794C23.161 59.853 23.1602 60.9122 23.1689 61.9716C23.1689 62.3233 23.1447 62.3348 22.8046 62.2575C21.6186 61.9964 20.4509 61.6583 19.3089 61.2453C19.2363 61.2188 19.1671 61.1888 19.098 61.1565C18.8069 61.0321 18.5127 60.9146 18.2184 60.7971L18.2184 60.797C17.6678 60.5772 17.117 60.3572 16.5858 60.0912C16.5186 60.0533 16.4437 60.0313 16.3667 60.0267C16.041 59.8904 15.7292 59.7266 15.4176 59.563L15.4175 59.5629C15.2549 59.4775 15.0923 59.3921 14.9279 59.3107C14.8558 59.2531 14.7786 59.2022 14.6973 59.1585C14.6753 59.1514 14.6544 59.1413 14.635 59.1286C14.59 59.111 14.5503 59.082 14.5197 59.0444C13.0777 58.2338 11.7032 57.3085 10.4096 56.2774C9.51836 55.572 8.67418 54.8091 7.88245 53.9935C7.25178 53.356 6.66003 52.681 6.11043 51.9724C5.95716 51.7898 5.81324 51.5999 5.66913 51.4098L5.66902 51.4096L5.66892 51.4095C5.57569 51.2865 5.48238 51.1634 5.38639 51.0421C5.29323 50.9254 5.21067 50.8009 5.12813 50.6764C5.01251 50.5021 4.89692 50.3278 4.75229 50.1751C4.51461 49.8397 4.30675 49.486 4.09902 49.1325L4.09898 49.1325L4.09895 49.1324C3.9903 48.9475 3.88169 48.7627 3.76886 48.5806C3.75558 48.5631 3.74754 48.5423 3.74571 48.5204C3.74387 48.4986 3.7483 48.4767 3.75849 48.4572Z" fill="#0755E8"/>
</svg>
