<svg xmlns="http://www.w3.org/2000/svg" xmlns:xlink="http://www.w3.org/1999/xlink" fill="none" version="1.1" width="1461.564453125" height="994.6807861328125" viewBox="0 0 1461.564453125 994.6807861328125"><defs><clipPath id="master_svg0_87_104"><rect x="0" y="0" width="1461.564453125" height="994.6807861328125" rx="0"/></clipPath><clipPath id="master_svg1_87_109"><rect x="341.002197265625" y="140.7855224609375" width="779.5599975585938" height="713.1099853515625" rx="0"/></clipPath></defs><g clip-path="url(#master_svg0_87_104)"><g><g clip-path="url(#master_svg1_87_109)"><g><path d="M951.782474975586,279.46553466796877C886.212474975586,309.74553466796874,818.3824749755859,294.46553466796877,740.652474975586,315.75553466796873C678.5524749755859,332.67553466796875,626.0624749755859,374.8855346679687,605.652474975586,488.55553466796874C640.152474975586,444.78553466796876,676.292474975586,414.36553466796875,715.5624749755859,392.43553466796874C753.1324749755859,371.43553466796874,793.6224749755859,358.0155346679687,838.4224749755859,347.7655346679687C843.292474975586,346.65553466796877,845.282474975586,353.61553466796875,840.5524749755859,355.17553466796875C782.1224749755859,374.30553466796874,731.1924749755859,398.3255346679688,688.6224749755859,429.23553466796875C643.292474975586,462.22553466796876,607.292474975586,503.30553466796874,581.782474975586,550.8455346679688C493.51617497558595,493.44753466796874,459.03607497558596,381.06953466796875,499.92217497558596,284.04553466796875C500.35217497558597,283.04553466796875,500.7921749755859,282.04553466796875,501.24217497558595,281.04553466796875Q500.0221749755859,273.30553466796874,498.64217497558593,265.37553466796874C498.50217497558594,264.5755346679687,498.35217497558597,263.77552766796873,498.20217497558593,262.98553466796875Q493.87217497558595,271.27552466796874,490.20217497558593,279.98553466796875C442.08077497558594,393.86053466796875,493.53707497558594,525.3355346679688,606.1704749755859,576.2945346679687C718.8044749755859,627.2535346679688,851.527474975586,579.1075346679688,905.292474975586,467.78553466796876Q896.962474975586,473.09553466796876,887.9424749755859,477.8955346679687C828.143474975586,580.7625346679688,696.719474975586,616.3805346679687,593.162474975586,557.7855346679687C661.492474975586,450.9055346679687,755.3424749755859,519.4155346679688,850.4324749755859,482.1355346679687C938.0524749755859,447.75553466796873,979.032474975586,375.34553466796876,989.0524749755859,299.3255346679688C989.762474975586,294.00553466796873,991.392474975586,261.1655246679687,951.782474975586,279.46553466796877Z" fill="#54C024" fill-opacity="1"/></g><g><path d="M532.4221966552734,271.1855223632813C542.0521966552734,326.37542236328125,543.9721966552735,373.87542236328125,549.7521966552735,402.75542236328124C553.7521966552735,422.8254223632813,567.6921966552734,453.0954223632813,593.2421966552735,471.87542236328125C614.7321966552735,364.72542236328127,666.0921966552735,324.24542236328125,726.5821966552735,307.78542236328127C739.0261966552735,304.42242236328127,751.6541966552734,301.77842236328127,764.4021966552734,299.86542236328125L764.1321966552734,299.44542236328124C735.2921966552734,255.78552236328125,670.4221966552734,163.34552236328125,483.64219665527344,200.89552236328126Q522.7921966552734,215.98552236328126,532.4221966552734,271.1855223632813ZM567.7321966552735,212.57552236328127C575.8562966552735,212.57552236328127,582.4421966552734,219.16142236328125,582.4421966552734,227.28552236328125C582.4421966552734,235.40962236328124,575.8562966552735,241.99552236328125,567.7321966552735,241.99552236328125C559.6080966552735,241.99552236328125,553.0221966552734,235.40962236328124,553.0221966552734,227.28552236328125C553.0221966552734,219.16142236328125,559.6080966552735,212.57552236328127,567.7321966552735,212.57552236328127Z" fill="#E4EA13" fill-opacity="1"/></g><g><path d="M615.5321893310547,168.43547717285156C725.0121893310547,122.29317717285156,851.2611893310548,172.54797717285157,899.0821893310547,281.30597717285156Q904.5121893310547,280.5659771728516,909.9121893310546,279.7059771728516C855.9921893310548,152.23917717285156,701.7841893310547,101.93417717285156,583.0721893310547,173.08547717285157Q591.8221893310547,174.18547717285156,600.0721893310547,175.69547717285155Q607.6421893310547,171.78547717285156,615.5321893310547,168.43547717285156Z" fill="#54C024" fill-opacity="1"/></g><g><path d="M341.00219726562773,843.845517578125L341.00219726562773,679.585507578125C341.0021963119477,675.205867578125,344.5525834509277,671.655456542925,348.93219345092774,671.655517578125L403.63219345092773,671.655517578125C409.9021934509277,671.655517578125,414.9865934509277,676.735477578125,414.99219345092774,683.005517578125C414.98669345092776,689.275517578125,409.9021934509277,694.355417578125,403.63219345092773,694.355517578125L381.74219345092774,694.355517578125C377.36259345092776,694.355417578125,373.81219345092774,697.905817578125,373.81219345092774,702.285417578125L373.81219345092774,738.785517578125C373.81219345092774,743.165117578125,377.36259345092776,746.715517578125,381.74219345092774,746.715517578125L395.1621934509277,746.715517578125C401.5520934509277,746.715517578125,406.73219345092775,751.895617578125,406.73219345092775,758.285517578125C406.73219345092775,764.675517578125,401.5520934509277,769.855517578125,395.1621934509277,769.855517578125L381.74219345092774,769.855517578125C377.36259345092776,769.855517578125,373.81219345092774,773.405517578125,373.81219345092774,777.785517578125L373.81219345092774,843.785517578125C373.85129345092776,848.192517578125,370.28949345092775,851.785517578125,365.88219345092773,851.785517578125L348.88219345092773,851.785517578125C344.5181834509277,851.757517578125,340.99656868092774,848.209517578125,341.00219726562773,843.845517578125Z" fill="#54C024" fill-opacity="1"/></g><g><path d="M512.412179699707,853.8955224609375Q484.582179699707,853.8955224609375,472.54217969970705,838.7955224609375Q460.502204899707,823.6955224609375,460.482200599707,794.5755224609375L460.482200599707,728.0955224609374C460.34587869970704,719.7217224609375,461.256263699707,711.3636224609374,463.192209699707,703.2155224609374C464.80928969970705,696.5904224609375,467.78929969970704,690.3749224609375,471.942179699707,684.9655224609374C476.14317969970705,679.6889224609375,481.72747969970703,675.6832924609375,488.072179699707,673.3955124609375Q498.18217969970704,669.5355224609375,512.412179699707,669.5355224609375Q540.112179699707,669.5355224609375,552.222179699707,684.4155224609375Q564.3318796997071,699.2955224609375,564.3418796997071,728.0955224609374L564.3418796997071,794.5755224609375C564.460879699707,802.9355224609375,563.530879699707,811.2775224609375,561.571879699707,819.4055224609375C559.919479699707,826.1285224609375,556.926379699707,832.4475224609375,552.7721796997071,837.9855224609375C548.588879699707,843.3585224609375,543.003879699707,847.4725224609375,536.6321796997071,849.8755224609375Q526.542179699707,853.8955224609375,512.412179699707,853.8955224609375ZM504.202179699707,828.1455224609375C506.819079699707,829.1535224609374,509.608879699707,829.6355224609375,512.412179699707,829.5655224609375C515.196279699707,829.6395224609375,517.967079699707,829.1565224609375,520.562179699707,828.1455224609375C522.609279699707,827.3395224609375,524.445779699707,826.0775224609375,525.932179699707,824.4555224609375C527.396479699707,822.7015224609374,528.470279699707,820.6565224609375,529.082179699707,818.4555224609375C529.831279699707,816.0485224609375,530.340379699707,813.5725224609375,530.602179699707,811.0655224609375C530.879679699707,808.1405224609375,531.006579699707,805.2035224609375,530.982179699707,802.2655224609375L530.982179699707,720.4855224609375C531.030479699707,716.8545224609375,530.813279699707,713.2248224609375,530.332179699707,709.6255224609375C529.917179699707,706.7754224609375,529.056679699707,704.0083224609375,527.7821796997071,701.4255224609375C526.578979699707,698.9227224609375,524.572279699707,696.8949224609376,522.082179699707,695.6655224609375C519.048679699707,694.2944224609375,515.738979699707,693.6441224609375,512.412179699707,693.7655224609375C509.066379699707,693.6482224609375,505.73807969970704,694.2981224609375,502.68217969970704,695.6655224609375C500.17517969970703,696.8713224609374,498.161679699707,698.9060224609375,496.98217969970705,701.4255224609375C495.74597969970705,704.0194224609374,494.90337969970705,706.7831224609375,494.48217969970705,709.6255224609375C494.00617969970705,713.2253224609375,493.78897969970706,716.8547224609375,493.832179699707,720.4855224609375L493.832179699707,802.2955224609375C493.80787969970703,805.2335224609375,493.93467969970703,808.1705224609375,494.212179699707,811.0955224609374C494.473979699707,813.6025224609375,494.983179699707,816.0785224609375,495.73217969970705,818.4855224609375C496.340279699707,820.6785224609375,497.395779699707,822.7205224609374,498.832179699707,824.4855224609375C500.306579699707,826.1145224609375,502.14727969970704,827.3685224609375,504.202179699707,828.1455224609375Z" fill="#54C024" fill-opacity="1"/></g><g><path d="M619.502197265625,843.8454560546875L619.502197265625,679.5855060546875C619.502197265625,675.2058760546875,623.052577265625,671.6554565546875,627.432187265625,671.6555175546875L660.782197265625,671.6555175546875C668.989797265625,671.5299070546876,677.186197265625,672.3112790546875,685.222197265625,673.9855360546875C691.613497265625,675.3525360546874,697.659697265625,678.0064060546875,702.992197265625,681.7855560546875C708.118297265625,685.5613560546875,712.042697265625,690.7394560546875,714.292197265625,696.6954560546875Q718.042197265625,706.0855560546875,718.042197265625,719.6954560546875Q718.042197265625,736.6954560546875,712.992197265625,747.3955560546875C710.531297265625,752.7176560546875,706.568897265625,757.2047560546876,701.592197265625,760.3054560546875C698.556997265625,762.1677560546875,697.118097265625,765.8119560546875,698.062197265625,769.2454560546875L718.462197265625,841.7154560546875C719.889197265625,846.7764560546875,716.080197265625,851.7974560546875,710.8221972656249,851.7854560546875L694.502197265625,851.7854560546875C690.894597265625,851.7864560546875,687.739997265625,849.3544560546875,686.8221972656249,845.8654560546875L668.412197265625,775.4754560546875C667.502197265625,771.9844560546875,664.350197265625,769.5472560546875,660.742197265625,769.5455560546875L660.292197265625,769.5455560546875C655.912597265625,769.5455560546875,652.362197265625,773.0954560546875,652.362197265625,777.4754560546875L652.362197265625,843.8554560546875C652.356697265625,848.2364560546876,648.803497265625,851.7854560546875,644.422197265625,851.7854560546875L627.432217265625,851.7854560546875C623.048647265625,851.7854560546875,619.496612545625,848.2294560546875,619.502197265625,843.8454560546875ZM652.292197265625,740.6354560546874C652.292197265625,745.0167560546874,655.840997265625,748.5700560546875,660.222197265625,748.5754560546875Q674.772197265625,748.5754560546875,680.912197265625,742.3754560546874Q687.052197265625,736.1754560546875,687.052197265625,721.1954560546875Q687.052197265625,706.7454560546875,681.732197265625,700.4954560546875Q676.412197265625,694.2454560546875,662.172197265625,694.2554560546876L660.292197265625,694.2554560546876C655.885397265625,694.2163560546875,652.292197265625,697.7782560546875,652.292197265625,702.1855560546875L652.292197265625,740.6354560546874Z" fill="#E4EA13" fill-opacity="1"/></g><g><path d="M774.0621948242188,843.845517578125L774.0621948242188,679.585507578125C774.0621643066188,675.205867578125,777.6125748242188,671.655456542925,781.9921848242187,671.655517578125L837.8921948242188,671.655517578125C844.2820948242188,671.655517578125,849.4621948242187,676.835567578125,849.4621948242187,683.225517578125C849.4565948242188,689.611617578125,844.2781948242188,694.785517578125,837.8921948242188,694.785517578125L814.8021948242188,694.785517578125C810.4225948242188,694.785417578125,806.8721948242187,698.335917578125,806.8721948242187,702.715517578125L806.8721948242187,738.565517578125C806.8721948242187,742.945117578125,810.4225948242188,746.495517578125,814.8021948242188,746.495517578125L828.9821948242187,746.495517578125C835.3720948242187,746.495417578125,840.5521948242188,751.675517578125,840.5521948242188,758.065517578125C840.5522948242187,764.455417578125,835.3721948242187,769.635517578125,828.9821948242187,769.635517578125L814.8021948242188,769.635517578125C810.4225948242188,769.635417578125,806.8721948242187,773.185517578125,806.8721948242187,777.565517578125L806.8721948242187,821.135517578125C806.8721948242187,825.515517578125,810.4225948242188,829.065517578125,814.8021948242188,829.065517578125L838.6521948242188,829.065517578125C844.9206948242188,829.065517578125,850.0021948242188,834.147517578125,850.0021948242188,840.415517578125C850.0133948242187,846.6915175781251,844.9284948242188,851.785517578125,838.6521948242188,851.785517578125L781.9922148242188,851.785517578125C777.6086448242188,851.785517578125,774.0566101042187,848.2295175781251,774.0621948242188,843.845517578125Z" fill="#E4EA13" fill-opacity="1"/></g><g><path d="M945.4721875,853.89509765625Q901.1221875,853.89509765625,896.0321655,806.1550976562501C895.6078495,802.09809765625,898.3050575,798.37109765625,902.2921775,797.50509765625L915.1621875,794.78509765625C919.7193875,793.82409765625,924.1164875,796.98909765625,924.6521875,801.61509765625Q927.6521875,828.61509765625,944.4921875,828.61509765625Q951.9921875,828.61509765625,955.6221875,824.05509765625Q959.2521875,819.49509765625,959.2921875,811.85509765625C959.3499875,807.13709765625,958.4271875,802.45809765625,956.5821875,798.11509765625C955.0501875,794.39309765625,952.9223875,790.94409765625,950.2821875,787.9050976562501C947.0542875,784.44509765625,943.6426875,781.16009765625,940.0621875,778.06509765625L916.3821875,757.53549765625Q905.9621875,748.41549765625,900.8422275,738.53549765625Q895.722229,728.65549765625,895.7422485352,713.93549765625Q895.7422485352,692.93549765625,908.0722875,681.33549765625Q920.4022875,669.73553465625,941.9122875,669.49548335625C947.8380875,669.33123765625,953.7496875,670.15930165625,959.4022875,671.94549765625C963.9823875,673.38580765625,968.2357875,675.70959765625,971.9221875000001,678.78551765625C975.3332875,681.79229765625,978.1370875,685.42439765625,980.1821875,689.48549765625C982.3670875,693.70339765625,984.0260875,698.17349765625,985.1221875,702.79549765625Q985.9921875,706.48549765625,986.5821875,710.62559765625C987.1989875,714.82429765625,984.4297875,718.77409765625,980.2721875,719.62559765625L968.1821875,722.01559765625C963.6277875,722.91659765625,959.2768875,719.72959765625,958.7621875,715.11549765625L958.6721875,714.30549765625C958.3271875,711.54809765625,957.7619875,708.82279765625,956.9821875,706.15549765625C956.3520875,703.76479765625,955.3060875,701.50369765625,953.8921875,699.47549765625C952.5524875,697.71629765625,950.7964875,696.31769765625,948.7821875,695.40549765625C946.4508875,694.35819765625,943.8845875,693.94419765625,941.3421875,694.20549765625Q934.0721875,694.64549765625,930.2021875,699.04549765625Q926.3321875,703.44559765625,926.3521875,710.78549765625Q926.3521875,719.48549765625,929.7721875,725.07549765625C932.7350875,729.57539765625,936.3398875,733.61819765625,940.4721875,737.07549765625L963.9421875,757.49549765625C967.5431875,760.73409765625,970.9522875,764.17989765625,974.1521875,767.81549765625C977.2201875,771.39209765625,979.9989875,775.20809765625,982.4621875,779.22509765625C985.1410875,783.61409765625,987.1624875,788.37109765625,988.4621875,793.34509765625C989.8557875,798.66609765625,990.5482875,804.14509765625,990.5221875,809.64509765625Q990.5221875,829.31509765625,978.0821875,841.58509765625Q965.6421875,853.85509765625,945.4721875,853.89509765625Z" fill="#E4EA13" fill-opacity="1"/></g><g><path d="M1058.5321826171876,843.845517578125L1058.5321826171876,703.785517578125C1058.5321826171876,699.404317578125,1054.9833826171875,695.851117578125,1050.6021826171875,695.845517578125L1036.2921726171876,695.845517578125C1031.9125326171875,695.845517578125,1028.3621215819876,692.295117578125,1028.3621826171875,687.915517578125L1028.3621826171875,679.585507578125C1028.3621215819876,675.205867578125,1031.9125326171875,671.655456542925,1036.2921726171876,671.655517578125L1112.6621826171875,671.655517578125C1117.0417826171874,671.655456542925,1120.5920826171875,675.205867578125,1120.5921826171875,679.585507578125L1120.5921826171875,687.945517578125C1120.5920826171875,692.325117578125,1117.0417826171874,695.875517578125,1112.6621826171875,695.875517578125L1099.2921826171876,695.875517578125C1094.9109826171875,695.881017578125,1091.3621826171875,699.434217578125,1091.3621826171875,703.815517578125L1091.3621826171875,843.815517578125C1091.3621826171875,848.195517578125,1087.8117826171874,851.745517578125,1083.4321826171874,851.745517578125L1066.4321826171874,851.745517578125C1062.0758826171875,851.728517578125,1058.5485826171875,848.201517578125,1058.5321826171876,843.845517578125Z" fill="#E4EA13" fill-opacity="1"/></g></g></g></g></svg>